<svg xmlns="http://www.w3.org/2000/svg" viewBox="0 0 17.94 41.41"><defs><style>.cls-1{fill:#916d29;}.cls-2{fill:none;stroke:#916d29;stroke-linecap:round;stroke-miterlimit:10;stroke-width:2px;}</style></defs><title>Recurso 6</title><g id="Capa_2" data-name="Capa 2"><g id="Capa_1-2" data-name="Capa 1"><path class="cls-1" d="M9,2a7,7,0,0,1,7,7V20.31A7,7,0,1,1,2,20.31V9A7,7,0,0,1,9,2M9,0A9,9,0,0,0,0,9V20.31a9,9,0,1,0,17.94,0V9A9,9,0,0,0,9,0Z"/><line class="cls-2" x1="8.87" y1="6.19" x2="8.87" y2="10.93"/><polyline class="cls-2" points="15.67 33.2 8.87 40 1.96 33.09"/></g></g></svg>